<?xml version="1.0" encoding="utf-8"?>
<!-- Generator: Adobe Illustrator 25.2.1, SVG Export Plug-In . SVG Version: 6.00 Build 0)  -->
<svg version="1.1" id="Layer_1" xmlns:serif="http://www.serif.com/"
	 xmlns="http://www.w3.org/2000/svg" xmlns:xlink="http://www.w3.org/1999/xlink" x="0px" y="0px" viewBox="0 0 1080 1080"
	 style="enable-background:new 0 0 1080 1080;" xml:space="preserve">
<style type="text/css">
	.st0{fill-rule:evenodd;clip-rule:evenodd;}
</style>
<path class="st0" d="M540,0c298,0,540,242,540,540s-242,540-540,540S0,838,0,540S242,0,540,0z M863.4,377.5
	c-7.8-29-30.6-51.9-59.7-59.7C751.1,303.7,540,303.7,540,303.7s-211.1,0-263.7,14.1c-29,7.8-51.9,30.6-59.7,59.7
	C202.5,430.2,202.5,540,202.5,540s0,109.8,14.1,162.5c7.8,29,30.6,51.9,59.7,59.7c52.6,14.1,263.7,14.1,263.7,14.1
	s211.1,0,263.7-14.1c29-7.8,51.9-30.6,59.7-59.7c14.1-52.6,14.1-162.5,14.1-162.5S877.5,430.2,863.4,377.5L863.4,377.5z
	 M472.5,641.3V438.8L647.9,540L472.5,641.3L472.5,641.3z"/>
</svg>
