<?xml version="1.0" encoding="utf-8"?>
<!-- Generator: Adobe Illustrator 25.2.1, SVG Export Plug-In . SVG Version: 6.00 Build 0)  -->
<svg version="1.1" id="Layer_1" xmlns:serif="http://www.serif.com/"
	 xmlns="http://www.w3.org/2000/svg" xmlns:xlink="http://www.w3.org/1999/xlink" x="0px" y="0px" viewBox="0 0 1080 1080"
	 style="enable-background:new 0 0 1080 1080;" xml:space="preserve">
<style type="text/css">
	.st0{fill-rule:evenodd;clip-rule:evenodd;}
</style>
<path class="st0" d="M537.9,1080l0.5,0h-0.2L537.9,1080L537.9,1080z M541.7,1080h-0.2l0.5,0L541.7,1080z M536.3,1080l0.5,0h-0.3
	L536.3,1080z M543.5,1080h-0.3l0.5,0L543.5,1080z M534.7,1080l0.3,0L534.7,1080L534.7,1080L534.7,1080z M545.2,1080l-0.3,0
	L545.2,1080L545.2,1080L545.2,1080z M547,1080l-0.1,0l0.5,0L547,1080L547,1080z M532.7,1080l0.5,0l-0.1,0L532.7,1080L532.7,1080z
	 M548.7,1079.9l-0.3,0l0.6,0L548.7,1079.9L548.7,1079.9z M531,1079.9l0.6,0l-0.3,0L531,1079.9L531,1079.9z M550.5,1079.9l-0.4,0
	l0.5,0L550.5,1079.9z M529.4,1079.9l0.5,0l-0.4,0L529.4,1079.9L529.4,1079.9z M527.4,1079.9l0.5,0l-0.1,0L527.4,1079.9L527.4,1079.9
	z M552.2,1079.9L552.2,1079.9l0.4,0L552.2,1079.9z M525.7,1079.8l0.7,0l-0.3,0L525.7,1079.8z M553.9,1079.8l-0.3,0l0.7,0
	L553.9,1079.8z M555.7,1079.8l-0.4,0l0.7,0L555.7,1079.8L555.7,1079.8z M524.1,1079.8l0.7,0l-0.4,0L524.1,1079.8L524.1,1079.8z
	 M522.6,1079.7l0.5,0L522.6,1079.7l-0.4,0L522.6,1079.7z M557.4,1079.7l-0.4,0L557.4,1079.7l0.4,0L557.4,1079.7z M559.1,1079.7
	l-0.2,0l0.7,0L559.1,1079.7z M520.4,1079.6l0.7,0l-0.2,0L520.4,1079.6z M518.8,1079.6l0.8,0l-0.4,0L518.8,1079.6z M560.9,1079.6
	l-0.4,0l0.8,0L560.9,1079.6z M517.2,1079.5l0.7,0l-0.6,0L517.2,1079.5L517.2,1079.5z M562.6,1079.5l-0.6,0l0.7,0L562.6,1079.5
	L562.6,1079.5z M515.1,1079.4l0.8,0l-0.2,0L515.1,1079.4z M564.3,1079.5l-0.2,0l0.8,0L564.3,1079.5L564.3,1079.5z M513.5,1079.4
	l0.8,0l-0.4,0L513.5,1079.4z M566,1079.4l-0.4,0l0.8,0L566,1079.4z M512,1079.3l0.8,0l-0.6,0L512,1079.3z M567.8,1079.3l-0.6,0
	l0.8,0L567.8,1079.3z M569.5,1079.2l-0.8,0L569.5,1079.2l0.7,0L569.5,1079.2L569.5,1079.2z M510.6,1079.2l0.7,0L510.6,1079.2l-0.8,0
	L510.6,1079.2L510.6,1079.2z M571.2,1079.1l-0.3,0l0.9,0L571.2,1079.1z M508.3,1079.1l0.9,0l-0.3,0L508.3,1079.1z M506.7,1079
	l0.9,0.1l-0.5,0L506.7,1079L506.7,1079z M572.9,1079l-0.5,0l0.9-0.1L572.9,1079L572.9,1079z M505.3,1078.9l0.8,0L505.3,1078.9
	l-0.7,0L505.3,1078.9L505.3,1078.9z M574.7,1078.9l-0.7,0L574.7,1078.9l0.7,0L574.7,1078.9L574.7,1078.9z M576.4,1078.8l-0.3,0
	l0.8-0.1L576.4,1078.8L576.4,1078.8z M503.1,1078.8l0.8,0.1l-0.3,0L503.1,1078.8z M501.5,1078.6l0.8,0.1l-0.4,0L501.5,1078.6
	L501.5,1078.6z M578.1,1078.7l-0.4,0l0.8-0.1L578.1,1078.7z M500,1078.5l0.7,0.1l-0.6,0L500,1078.5L500,1078.5z M579.8,1078.6
	l-0.6,0l0.7-0.1L579.8,1078.6L579.8,1078.6z M498,1078.4l0.6,0l-0.2,0L498,1078.4z M581.5,1078.4l-0.2,0l0.6,0L581.5,1078.4z
	 M583.2,1078.3l-0.3,0l0.7-0.1L583.2,1078.3z M496.4,1078.3l0.7,0.1l-0.3,0L496.4,1078.3L496.4,1078.3z M494.9,1078.1l0.6,0l-0.4,0
	L494.9,1078.1z M584.9,1078.2l-0.4,0l0.6,0L584.9,1078.2z M493.2,1078l0.2,0l0,0L493.2,1078L493.2,1078z M586.7,1078L586.7,1078
	l0.1,0L586.7,1078L586.7,1078z M588.4,1077.9l-0.2,0l0.4,0L588.4,1077.9L588.4,1077.9z M491.4,1077.8l0.4,0l-0.2,0L491.4,1077.8
	L491.4,1077.8z M489.8,1077.7l0.3,0l-0.2,0L489.8,1077.7z M590.1,1077.7l-0.2,0l0.3,0L590.1,1077.7z M455.6,1073.4
	C197.6,1032.9,0,809.3,0,540C0,242,242,0,540,0s540,242,540,540c0,269.3-197.6,492.9-455.6,533.4V696.1h125.8L774.1,540H624.4V438.7
	c0-42.7,20.9-84.3,88-84.3h68.1V221.5c0,0-61.8-10.5-120.9-10.5c-123.3,0-204,74.8-204,210.1v119H318.5v156.1h137.1V1073.4z"/>
</svg>
