<svg id="Lag_1" data-name="Lag 1" xmlns="http://www.w3.org/2000/svg" viewBox="0 0 508.31 35.79"><path d="M0,32.18a2.08,2.08,0,0,1,2.29-1.27q12.54,0,25.07,0A3.38,3.38,0,0,0,29,30.75a4,4,0,0,0,1.6-1.54c.37-.8-.38-1.27-1-1.64l-16-9.4C8.21,15,7.3,9.76,11.3,4.93A12.22,12.22,0,0,1,21.12.26q15.76,0,31.55,0h1.57A8.31,8.31,0,0,1,52.6,4.74c-.2.28-.88.3-1.33.3-5.76,0-11.52,0-17.28,0-2.64,0-5.27,0-7.91.07a1.86,1.86,0,0,0-1,.15c-.55.45-1.24,1-1.39,1.59-.11.42.48,1.24,1,1.54,4.21,2.54,8.46,5,12.7,7.48,1.31.76,2.58,1.6,3.94,2.28,4.55,2.28,5,6.57,3.28,10.29a11.72,11.72,0,0,1-11.17,7.29c-11.12.09-22.23,0-33.35,0Z"/><path d="M267.88,20.84c1.57-3.95,3.06-7.73,4.56-11.51,1-2.55,2.07-5.1,3-7.68A2.07,2.07,0,0,1,277.71.09c1.12,0,2.24,0,3.36,0,1.29,0,1.47.29,1,1.54-1.53,3.94-3.08,7.88-4.62,11.82l-8,20.39c-.7,1.81-.84,1.8-2.81,1.92a9.9,9.9,0,0,1-6.48-1.93c-9.23-6.26-18.53-12.4-27.81-18.58-.32-.22-.66-.41-1.09-.68L227,25.46c-1.12,2.86-2.27,5.71-3.34,8.59a2.17,2.17,0,0,1-2.48,1.72c-1.07-.1-2.16,0-3.24,0-1.29,0-1.44-.22-1-1.4,1.57-4.06,3.17-8.1,4.75-12.15,2.65-6.76,5.32-13.51,7.91-20.29A2.53,2.53,0,0,1,232.22.15c4-.39,7.18.84,10.4,3.19,7.91,5.77,16.06,11.19,24.12,16.76C267.06,20.32,267.4,20.53,267.88,20.84Z"/><path d="M324.73,23.22c-3.16,0-6.32,0-9.48,0-1.34,0-1.53-.27-1.05-1.48,1.59-4,1-3.4,4.88-3.44,3,0,6,0,9,0a9.1,9.1,0,0,0,9.3-8.09c.42-2.89-1-5.29-4.42-5.19-4.67.12-9.36,0-14,0a1.39,1.39,0,0,0-1.55,1Q312,20,306.5,33.8c-.74,1.89-.83,2-2.9,2H293.41c-1.27,0-1.45-.26-1-1.42Q298.83,18,305.27,1.58A2.08,2.08,0,0,1,307.44.09c12.4,0,24.79,0,37.19,0,4.45,0,7.14,3.09,6.92,7.8a15.59,15.59,0,0,1-13.43,14.81c-4,.58-8.13.36-12.19.5C325.53,23.23,325.13,23.22,324.73,23.22Z"/><path d="M426.13,10.66,401.57,30.77h5l19.31,0c1.46,0,1.64.25,1.11,1.62-1.49,3.81-1,3.32-4.71,3.32q-14.52,0-29,0a6.88,6.88,0,0,1-1.62-.41,6.4,6.4,0,0,1,1-1.5q11.06-9,22.17-18c5.78-4.68,11.58-9.33,17.31-14.06A6.47,6.47,0,0,1,436.9,0a2.21,2.21,0,0,1,2.17,1.48q6.62,15.08,13.3,30.11c.3.69.63,1.38.91,2.08.55,1.35.14,2-1.32,2-2.92,0-5.84,0-8.76,0-1.56,0-3.12,0-4.68,0a2.19,2.19,0,0,1-2.37-1.55c-3.14-7.5-6.34-15-9.53-22.48C426.5,11.39,426.35,11.11,426.13,10.66Z"/><path d="M193.38,35.75H179.22c-5.23,0-8.76-3-9.52-8.22-.93-6.39,1.08-12,4.8-17.06,3.85-5.23,8.82-8.87,15.35-10a14.39,14.39,0,0,1,2.62-.2q14.82,0,29.64,0c1.67,0,1.7,0,1.12,1.61-1.41,3.8-.92,3.18-4.63,3.2-6.12,0-12.24.1-18.35,0a8.84,8.84,0,0,0-6.06,2.13,26.14,26.14,0,0,0-9.55,16,13.1,13.1,0,0,0,0,3.7c.34,2.85,1.68,4,4.54,4h21.72c.7,0,1,.4.74,1a15.56,15.56,0,0,1-1.3,3.08,2.24,2.24,0,0,1-1.69.78C203.53,35.77,198.45,35.75,193.38,35.75Z"/><path d="M174.33.3a42.94,42.94,0,0,1-1.83,4.22c-.2.36-1,.51-1.59.51-7.43,0-14.87,0-22.31,0A8.6,8.6,0,0,0,140.84,9a47.32,47.32,0,0,0-3.78,7.57c-2.4,5.86-4.67,11.78-6.94,17.7a2,2,0,0,1-2.22,1.54c-4.08,0-8.16,0-12.23,0-.83,0-1.4-.14-1-1.16,3-7.62,5.88-15.35,9.24-22.83A18.8,18.8,0,0,1,136.06,1,18.46,18.46,0,0,1,141,.24c10.56-.06,21.11,0,31.67,0C173.07.21,173.46.25,174.33.3Z"/><path d="M372.25,35.7c-4.72,0-9.44,0-14.15,0a12.87,12.87,0,0,1-3-.32c-3.88-.92-6-3.61-5.57-7.58a30.15,30.15,0,0,1,1.74-7.17c2.34-6.31,4.9-12.55,7.32-18.83A2.28,2.28,0,0,1,361.11.07c3.92.08,7.83,0,11.75,0,1.47,0,1.62.22,1.06,1.64-2.67,6.83-5.36,13.65-8,20.49a23,23,0,0,0-1,3.56c-.66,3.11.76,4.9,3.92,5,1.68,0,3.36,0,5,0h14.87c1.29,0,1.51.3,1,1.51-1.58,4-1,3.39-4.77,3.41C380.72,35.71,376.48,35.7,372.25,35.7Z"/><path d="M93.83,35.77c-4.59,0-9.19,0-13.79,0a16.7,16.7,0,0,1-2.73-.25,6.56,6.56,0,0,1-5.83-6.68A18.87,18.87,0,0,1,73.06,21c2.52-6.42,5.07-12.82,7.55-19.26A2.12,2.12,0,0,1,82.92.19c4,0,8,0,12,0,1.37,0,1.51.21,1,1.47-2.75,7-5.52,14-8.23,21.05a17.86,17.86,0,0,0-.89,3.47c-.5,3,.84,4.59,3.89,4.61,6.24,0,12.47,0,18.71,0,.4,0,.8,0,1.2,0,1.26,0,1.47.33,1.06,1.55-1.14,3.4-1.14,3.4-4.77,3.4Z"/><path d="M482.47,17c7-5.35,13.89-10.58,20.71-15.93a6.22,6.22,0,0,1,4.52-1c.7,0,.75.51.38,1a4.54,4.54,0,0,1-.89.8c-8,6.19-16,12.36-23.95,18.59a5,5,0,0,0-1.51,2q-2.36,5.76-4.54,11.58a2.23,2.23,0,0,1-2.42,1.64c-3.48-.06-7,0-10.43,0-1.44,0-1.65-.31-1.13-1.64,1.51-3.86,3-7.72,4.57-11.57a2.38,2.38,0,0,0-.1-2.14c-3-6-6-12.06-9-18.09-.8-1.62-.46-2.2,1.32-2.21,4.2,0,8.4,0,12.59,0a2.11,2.11,0,0,1,2.14,1.37q3.49,7.14,7.05,14.26C482,16.09,482.18,16.51,482.47,17Z"/><path d="M54.21,35.77H49.06c-1.81,0-1.87-.09-1.19-1.83l5.67-14.47c2.31-5.9,4.65-11.79,6.92-17.7A2,2,0,0,1,62.68.24c3.55,0,7.11,0,10.67,0,1.43,0,1.58.21,1.06,1.53Q68,18.12,61.61,34.48a1.83,1.83,0,0,1-2,1.31C57.81,35.72,56,35.77,54.21,35.77Z"/><path d="M153.23,18.79c-4,0-8.07,0-12.11,0-1.33,0-1.5-.25-1-1.5,1.64-4,.82-3.37,4.87-3.39,7.32,0,14.63,0,21.95,0,1.76,0,1.82.08,1.13,1.74-1.5,3.62-.56,3.13-4.65,3.16C160,18.81,156.63,18.79,153.23,18.79Z"/><path d="M203.24,18.79H191.73c-1.61,0-1.76-.19-1.17-1.64,1.57-3.87.8-3.24,4.73-3.25,7.07,0,14.15,0,21.22,0,1.56,0,1.67.12,1.1,1.53-1.62,4-.64,3.26-4.78,3.3-3.2,0-6.39,0-9.59,0Z"/></svg>