<svg id="a254a378-a694-434b-8064-fd55c34c4c97" data-name="Lag 1" xmlns="http://www.w3.org/2000/svg" viewBox="0 0 251.93249 337.33921"><path d="M251.7595.18643l.00007,134.05729c-5.13638.27549-9.98816.75655-14.84059.76161q-68.77254.0716-137.54521.00964c-4.1671-.00015-8.60477-.71666-12.429.32279-4.24522,1.15389-7.93062,3.94113-11.85976,6.0172,3.22561,2.95133,6.05,6.42809,9.7966,8.69714,3.337,2.021,7.67547,2.75468,11.605,3.972,48.03281,14.87991,95.95853,30.04661,144.20065,44.36785,10.14684,3.01222,12.19456,7.07944,10.89655,15.98266C240.70138,289.01786,179.3616,337.3267,94.753,337.33732c-30.941.00387-61.8821.00059-93.72871.00061L1.02417,202.78549l136.23238-.00006c16.35788,30.9819,30.1008,39.937,54.74446,35.54767,18.30222-3.25985,31.23631-17.339,32.39881-36.39182-39.0089-11.64692-78.37066-23.39671-117.73032-35.152-16.21421-4.84263-32.61134-9.25534-48.59884-14.63318C17.911,138.64726-5.8087,102.69036,1.23058,66.82419,8.89276,27.78427,42.50171.8914,86.551.34783,141.13942-.3258,195.74628.18646,251.7595.18643Z"/></svg>