<svg id="Livello_1" data-name="Livello 1" xmlns="http://www.w3.org/2000/svg" viewBox="0 0 98.48 96.98"><defs><style>.cls-1{fill:#fff;}</style></defs><polygon points="49.24 21.98 66.34 0 65.31 27.83 92.54 21.98 73.86 42.64 98.48 55.67 70.89 59.48 81.38 85.29 57.79 70.48 49.24 96.98 40.69 70.48 17.1 85.29 27.59 59.48 0 55.67 24.62 42.64 5.94 21.98 33.17 27.83 32.14 0 49.24 21.98"/><path class="cls-1" d="M38.43,51.66V44h1.41l3.62,5.42V44h1.41v7.7H43.46l-3.62-5.41V51.7Z"/><path class="cls-1" d="M49,51.79a3,3,0,0,1-1.46-.35,2.53,2.53,0,0,1-1-1A2.92,2.92,0,0,1,46.16,49a3.19,3.19,0,0,1,.35-1.51,2.67,2.67,0,0,1,1-1,3.12,3.12,0,0,1,2.91,0,2.53,2.53,0,0,1,1,1,2.57,2.57,0,0,1,.35,1.35v.43H47.55a1.41,1.41,0,0,0,.45,1,1.33,1.33,0,0,0,1,.37,1.23,1.23,0,0,0,.72-.2,1.12,1.12,0,0,0,.44-.5h1.43a2.87,2.87,0,0,1-.51.94,2.44,2.44,0,0,1-.89.67A2.7,2.7,0,0,1,49,51.79Zm0-4.57a1.42,1.42,0,0,0-.91.29,1.35,1.35,0,0,0-.51.88H50.3a1.19,1.19,0,0,0-.4-.86A1.33,1.33,0,0,0,49,47.22Z"/><path class="cls-1" d="M53.76,51.66l-1.6-5.46h1.4l.94,3.93,1.1-3.93h1.57l1.1,3.93.95-3.93h1.4L59,51.66H57.55l-1.17-4.08-1.16,4.08Z"/></svg>