<svg id="Livello_1" data-name="Livello 1" xmlns="http://www.w3.org/2000/svg" width="36.4" height="48.74" viewBox="0 0 36.4 48.74"><path d="M10.89,20.43l.79.79a3.67,3.67,0,0,0,1.78.89c.62.16,1.23.37,1.84.56l2.91.91,3.67,1.14,3.63,1.12,2.86.88,2.75.84,3.23,1a9.88,9.88,0,0,1,1.19.42,1.32,1.32,0,0,1,.86,1.37,18.83,18.83,0,0,1-.27,2c-.13.65-.32,1.3-.5,2a19.32,19.32,0,0,1-5.16,8.42A20.47,20.47,0,0,1,25,46.39a21.64,21.64,0,0,1-4,1.45c-.94.24-1.89.42-2.84.58a29.92,29.92,0,0,1-5.35.32c-4.1,0-8.21,0-12.32,0-.3,0-.3,0-.3-.3V29.6c0-.3,0-.3.3-.3H19.58a.38.38,0,0,1,.4.23,15.7,15.7,0,0,0,2,3,5.79,5.79,0,0,0,2.37,1.71,5.42,5.42,0,0,0,2.12.29,6.71,6.71,0,0,0,3.35-.93,5.3,5.3,0,0,0,2.37-3.2c.09-.33.13-.68.21-1a.22.22,0,0,0-.19-.29L30,28.48l-3-.9-3-.89-2.49-.75-2.69-.8-3-.91-3-.88L8.53,22a13,13,0,0,1-3.91-2A11.4,11.4,0,0,1,.68,15a9.28,9.28,0,0,1-.63-4.48A11.24,11.24,0,0,1,2.47,4.67,11.65,11.65,0,0,1,7.23,1.11,13.21,13.21,0,0,1,10.07.29,17,17,0,0,1,13,.05l3,0L25.9,0,35,0l1.26,0c.15,0,.2.05.18.19V19.1c0,.33,0,.33-.31.34-1.45,0-2.91.08-4.36.08H14.44c-.37,0-.74,0-1.11,0a2.59,2.59,0,0,0-1.36.33Z"/></svg>